<svg width="412" height="108" viewBox="0 0 412 108" fill="none" xmlns="http://www.w3.org/2000/svg">
<path d="M24.5532 95.5966C26.7365 102.77 33.2863 107.761 40.9278 107.761C48.7253 107.761 55.2752 102.77 57.4585 95.7526L79.2913 34.9324C79.2913 34.9324 89.584 9.51271 62.7607 0.155762L40.6159 61.4438L18.4712 0.155762C-8.35208 9.51271 1.94056 34.9324 1.94056 34.9324L24.5532 95.5966Z" fill="#CCF381"/>
<path d="M114.38 107.761V56.7655C114.38 56.7655 115.627 29.4744 87.0888 29.4744V80.4697C87.0888 80.4697 85.9971 107.761 114.38 107.761ZM101.748 25.4197C108.766 25.4197 114.38 19.6496 114.38 12.6319C114.38 5.61417 108.766 0 101.748 0C94.7303 0 88.9601 5.61417 88.9601 12.6319C88.9601 19.6496 94.7303 25.4197 101.748 25.4197Z" fill="#CCF381"/>
<path d="M159.293 56.4538C169.274 56.4538 174.264 71.113 197.501 59.5728C193.29 42.2624 177.851 29.4746 159.293 29.4746C137.772 29.4746 120.15 46.9409 120.15 68.6178C120.15 90.1388 137.772 107.761 159.293 107.761C178.943 107.761 195.317 93.2578 198.125 74.388L170.054 74.076C168.026 77.9748 163.972 80.6259 159.293 80.6259C152.743 80.6259 147.285 75.1677 147.285 68.6178C147.285 61.912 152.743 56.4538 159.293 56.4538Z" fill="#CCF381"/>
<path d="M203.583 4.67871V80.47C203.583 80.9378 203.271 107.761 229.938 107.761C256.605 107.761 256.917 80.47 256.45 80.47H230.874V56.6098C236.956 56.2979 256.294 53.3348 256.294 29.4746H230.718C230.25 22.7688 226.663 4.67871 203.583 4.67871Z" fill="#CCF381"/>
<path d="M411.151 43.51C403.977 34.9328 393.217 29.4746 381.209 29.4746C373.879 29.4746 366.705 31.346 360.156 34.7769C356.257 31.6579 350.487 29.4746 342.377 29.4746V47.7207C340.038 49.9039 337.855 52.0872 335.672 54.2705C329.902 39.7673 315.71 29.4746 299.18 29.4746C277.503 29.4746 260.036 46.9409 260.036 68.6178C260.036 90.4507 277.503 107.449 299.18 107.761C317.27 107.761 330.525 94.9732 342.377 82.8092C343.001 89.3591 346.432 107.761 369.669 107.761C369.669 94.5054 369.669 81.4057 369.669 68.15C369.669 66.1227 370.136 64.0953 371.072 62.3799C364.522 64.5632 358.596 68.15 352.67 72.3606C361.559 63.6275 370.448 56.6098 381.209 56.6098C397.739 56.6098 382.612 72.5166 411.151 43.51ZM298.868 80.6259C292.318 80.314 287.171 75.0117 287.171 68.6178C287.171 61.912 292.474 56.4538 299.18 56.4538C305.885 56.4538 311.188 61.912 311.188 68.6178C311.188 69.8654 311.032 71.269 310.564 72.3606C316.49 69.8654 322.26 65.187 331.461 58.4811C329.746 60.1966 313.215 80.6259 298.868 80.6259Z" fill="#CCF381"/>
</svg>
