<svg width="154" height="34" viewBox="0 0 154 34" fill="none" xmlns="http://www.w3.org/2000/svg">
<path d="M52.8999 12.3114C53.3511 12.3114 53.7243 12.4589 54.0193 12.754C54.3144 13.049 54.4619 13.4308 54.4619 13.8995V24.9119C54.4619 25.3632 54.3144 25.745 54.0193 26.0574C53.7243 26.3525 53.3511 26.5 52.8999 26.5C52.4486 26.5 52.0755 26.3525 51.7804 26.0574C51.4854 25.745 51.3378 25.3632 51.3378 24.9119V23.6362L51.9106 23.8705C51.9106 24.0962 51.7891 24.3739 51.5461 24.7036C51.3031 25.0161 50.9733 25.3285 50.5568 25.6409C50.1403 25.9533 49.6456 26.2223 49.0729 26.4479C48.5175 26.6562 47.91 26.7603 47.2505 26.7603C46.0529 26.7603 44.9681 26.4566 43.9962 25.8491C43.0242 25.2243 42.2519 24.3739 41.6791 23.2978C41.1238 22.2044 40.8461 20.9547 40.8461 19.5489C40.8461 18.1257 41.1238 16.876 41.6791 15.8C42.2519 14.7065 43.0156 13.8561 43.9702 13.2486C44.9247 12.6238 45.9835 12.3114 47.1463 12.3114C47.8926 12.3114 48.5782 12.4242 49.203 12.6498C49.8278 12.8754 50.3659 13.1618 50.8171 13.5089C51.2858 13.8561 51.6416 14.2119 51.8845 14.5763C52.1449 14.9235 52.2751 15.2185 52.2751 15.4615L51.3378 15.8V13.8995C51.3378 13.4482 51.4854 13.075 51.7804 12.78C52.0755 12.4676 52.4486 12.3114 52.8999 12.3114ZM47.641 23.8966C48.4046 23.8966 49.0729 23.7057 49.6456 23.3238C50.2184 22.942 50.6609 22.4213 50.9733 21.7618C51.3031 21.1022 51.468 20.3646 51.468 19.5489C51.468 18.7158 51.3031 17.9695 50.9733 17.3099C50.6609 16.6504 50.2184 16.1297 49.6456 15.7479C49.0729 15.3661 48.4046 15.1751 47.641 15.1751C46.8947 15.1751 46.2351 15.3661 45.6624 15.7479C45.0896 16.1297 44.6384 16.6504 44.3086 17.3099C43.9962 17.9695 43.84 18.7158 43.84 19.5489C43.84 20.3646 43.9962 21.1022 44.3086 21.7618C44.6384 22.4213 45.0896 22.942 45.6624 23.3238C46.2351 23.7057 46.8947 23.8966 47.641 23.8966ZM58.0788 24.3392C57.9053 24.0962 57.8272 23.7838 57.8445 23.4019C57.8619 23.0201 58.0875 22.6903 58.5214 22.4126C58.7991 22.2391 59.0942 22.1696 59.4066 22.2044C59.719 22.2217 60.0227 22.3779 60.3178 22.673C60.8211 23.1763 61.3505 23.5668 61.9059 23.8445C62.4613 24.1222 63.1555 24.2611 63.9886 24.2611C64.2489 24.2437 64.5353 24.209 64.8477 24.1569C65.1601 24.0875 65.4292 23.9487 65.6548 23.7404C65.8978 23.5147 66.0193 23.1763 66.0193 22.725C66.0193 22.3432 65.8891 22.0395 65.6288 21.8138C65.3684 21.5882 65.0213 21.3973 64.5874 21.2411C64.1708 21.0849 63.7022 20.9374 63.1815 20.7985C62.6435 20.6423 62.0881 20.4687 61.5154 20.2778C60.96 20.0869 60.448 19.8439 59.9793 19.5489C59.5107 19.2365 59.1289 18.8286 58.8338 18.3253C58.5388 17.8219 58.3913 17.1884 58.3913 16.4248C58.3913 15.557 58.6342 14.8193 59.1202 14.2119C59.6062 13.6044 60.231 13.1358 60.9947 12.806C61.7757 12.4763 62.5914 12.3114 63.4419 12.3114C63.9799 12.3114 64.544 12.3808 65.1341 12.5196C65.7242 12.6411 66.2883 12.8494 66.8263 13.1445C67.3644 13.4222 67.8156 13.7953 68.1801 14.2639C68.371 14.5243 68.4838 14.8367 68.5186 15.2012C68.5533 15.5656 68.3884 15.8954 68.0239 16.1905C67.7636 16.3987 67.4598 16.4942 67.1127 16.4768C66.7656 16.4421 66.4792 16.3206 66.2536 16.1124C65.9585 15.7305 65.5593 15.4268 65.056 15.2012C64.57 14.9755 64.006 14.8627 63.3638 14.8627C63.1034 14.8627 62.8171 14.8974 62.5047 14.9669C62.2096 15.0189 61.9493 15.1491 61.7236 15.3574C61.498 15.5483 61.3852 15.8607 61.3852 16.2946C61.3852 16.6938 61.5154 17.0149 61.7757 17.2579C62.036 17.4835 62.3832 17.6744 62.8171 17.8306C63.2683 17.9695 63.7456 18.1083 64.2489 18.2472C64.7696 18.386 65.299 18.5509 65.837 18.7418C66.3751 18.9327 66.8697 19.1844 67.321 19.4968C67.7722 19.8092 68.1367 20.2171 68.4144 20.7204C68.6921 21.2064 68.831 21.8312 68.831 22.5949C68.831 23.48 68.5706 24.235 68.0499 24.8598C67.5293 25.4847 66.8784 25.962 66.0974 26.2917C65.3163 26.6041 64.518 26.7603 63.7022 26.7603C62.6782 26.7603 61.6542 26.5868 60.6302 26.2397C59.6062 25.8752 58.7557 25.2417 58.0788 24.3392ZM72.6429 12.8321H78.813C79.2296 12.8321 79.5767 12.9709 79.8544 13.2486C80.1321 13.5263 80.271 13.8734 80.271 14.29C80.271 14.6892 80.1321 15.0276 79.8544 15.3053C79.5767 15.5656 79.2296 15.6958 78.813 15.6958H72.6429C72.2264 15.6958 71.8793 15.557 71.6016 15.2793C71.3239 15.0016 71.185 14.6544 71.185 14.2379C71.185 13.8387 71.3239 13.5089 71.6016 13.2486C71.8793 12.9709 72.2264 12.8321 72.6429 12.8321ZM75.4286 9.57778C75.8799 9.57778 76.2443 9.73399 76.522 10.0464C76.8171 10.3415 76.9646 10.7146 76.9646 11.1659V22.7511C76.9646 22.9941 77.008 23.1937 77.0948 23.3499C77.1989 23.5061 77.3291 23.6189 77.4853 23.6883C77.6589 23.7577 77.8411 23.7924 78.032 23.7924C78.2403 23.7924 78.4312 23.7577 78.6048 23.6883C78.7783 23.6015 78.9779 23.5581 79.2035 23.5581C79.4465 23.5581 79.6635 23.671 79.8544 23.8966C80.0627 24.1222 80.1668 24.4346 80.1668 24.8338C80.1668 25.3198 79.8978 25.719 79.3598 26.0314C78.8391 26.3438 78.275 26.5 77.6675 26.5C77.3031 26.5 76.8952 26.474 76.4439 26.4219C76.01 26.3525 75.5935 26.2049 75.1943 25.9793C74.8125 25.7363 74.4914 25.3719 74.231 24.8859C73.9707 24.3999 73.8405 23.7317 73.8405 22.8812V11.1659C73.8405 10.7146 73.988 10.3415 74.2831 10.0464C74.5955 9.73399 74.9773 9.57778 75.4286 9.57778ZM100.218 12.5717C100.617 12.5717 100.964 12.7279 101.259 13.0403C101.554 13.3354 101.702 13.7172 101.702 14.1858C101.702 14.3073 101.693 14.4201 101.676 14.5243C101.658 14.6111 101.632 14.6978 101.598 14.7846L97.6144 25.5107C97.4929 25.8578 97.2759 26.1268 96.9635 26.3178C96.6511 26.4913 96.3214 26.5521 95.9742 26.5C95.3841 26.4653 94.9415 26.1355 94.6465 25.5107L92.0691 18.091L92.746 18.117L90.3248 25.5107C90.0298 26.1355 89.5872 26.4653 88.9971 26.5C88.6673 26.5521 88.3375 26.4913 88.0078 26.3178C87.6954 26.1268 87.4784 25.8578 87.3569 25.5107L83.3737 14.7846C83.3043 14.5937 83.2696 14.3941 83.2696 14.1858C83.2696 13.7693 83.4084 13.3961 83.6861 13.0664C83.9638 12.7366 84.3456 12.5717 84.8316 12.5717C85.1614 12.5717 85.4564 12.6498 85.7168 12.806C85.9771 12.9622 86.1594 13.2139 86.2635 13.561L89.4136 22.1002L88.7628 22.0482L91.1319 15.6177C91.4096 14.9755 91.8869 14.6544 92.5638 14.6544C92.9456 14.6544 93.232 14.7412 93.4229 14.9148C93.6312 15.071 93.796 15.3053 93.9175 15.6177L96.2866 22.0482L95.5056 22.1523L98.7078 13.561C98.9161 12.9015 99.4194 12.5717 100.218 12.5717ZM112.417 12.3114C113.632 12.3114 114.717 12.6238 115.671 13.2486C116.643 13.8561 117.407 14.6978 117.962 15.7739C118.535 16.85 118.821 18.0996 118.821 19.5228C118.821 20.946 118.535 22.2044 117.962 23.2978C117.407 24.3739 116.652 25.2243 115.697 25.8491C114.76 26.4566 113.701 26.7603 112.521 26.7603C111.827 26.7603 111.176 26.6475 110.568 26.4219C109.961 26.1963 109.423 25.9099 108.954 25.5628C108.503 25.2156 108.147 24.8685 107.887 24.5214C107.644 24.1569 107.522 23.8532 107.522 23.6102L108.329 23.2718V30.1188C108.329 30.57 108.182 30.9432 107.887 31.2382C107.592 31.5506 107.219 31.7068 106.767 31.7068C106.316 31.7068 105.943 31.5593 105.648 31.2643C105.353 30.9692 105.205 30.5874 105.205 30.1188V14.1598C105.205 13.7085 105.353 13.3354 105.648 13.0403C105.943 12.7279 106.316 12.5717 106.767 12.5717C107.219 12.5717 107.592 12.7279 107.887 13.0403C108.182 13.3354 108.329 13.7085 108.329 14.1598V15.4355L107.887 15.2012C107.887 14.9755 108.008 14.7065 108.251 14.3941C108.494 14.0643 108.824 13.7433 109.241 13.4308C109.657 13.1011 110.135 12.8321 110.673 12.6238C111.228 12.4155 111.809 12.3114 112.417 12.3114ZM112.026 15.1751C111.263 15.1751 110.594 15.3661 110.022 15.7479C109.449 16.1297 108.998 16.6504 108.668 17.3099C108.356 17.9521 108.199 18.6897 108.199 19.5228C108.199 20.3386 108.356 21.0849 108.668 21.7618C108.998 22.4213 109.449 22.942 110.022 23.3238C110.594 23.7057 111.263 23.8966 112.026 23.8966C112.79 23.8966 113.45 23.7057 114.005 23.3238C114.578 22.942 115.02 22.4213 115.333 21.7618C115.662 21.0849 115.827 20.3386 115.827 19.5228C115.827 18.6897 115.662 17.9521 115.333 17.3099C115.02 16.6504 114.578 16.1297 114.005 15.7479C113.45 15.3661 112.79 15.1751 112.026 15.1751ZM133.997 12.3114C134.449 12.3114 134.822 12.4589 135.117 12.754C135.412 13.049 135.559 13.4308 135.559 13.8995V24.9119C135.559 25.3632 135.412 25.745 135.117 26.0574C134.822 26.3525 134.449 26.5 133.997 26.5C133.546 26.5 133.173 26.3525 132.878 26.0574C132.583 25.745 132.435 25.3632 132.435 24.9119V23.6362L133.008 23.8705C133.008 24.0962 132.887 24.3739 132.644 24.7036C132.401 25.0161 132.071 25.3285 131.654 25.6409C131.238 25.9533 130.743 26.2223 130.17 26.4479C129.615 26.6562 129.007 26.7603 128.348 26.7603C127.15 26.7603 126.066 26.4566 125.094 25.8491C124.122 25.2243 123.349 24.3739 122.777 23.2978C122.221 22.2044 121.944 20.9547 121.944 19.5489C121.944 18.1257 122.221 16.876 122.777 15.8C123.349 14.7065 124.113 13.8561 125.068 13.2486C126.022 12.6238 127.081 12.3114 128.244 12.3114C128.99 12.3114 129.676 12.4242 130.3 12.6498C130.925 12.8754 131.463 13.1618 131.915 13.5089C132.383 13.8561 132.739 14.2119 132.982 14.5763C133.242 14.9235 133.373 15.2185 133.373 15.4615L132.435 15.8V13.8995C132.435 13.4482 132.583 13.075 132.878 12.78C133.173 12.4676 133.546 12.3114 133.997 12.3114ZM128.738 23.8966C129.502 23.8966 130.17 23.7057 130.743 23.3238C131.316 22.942 131.758 22.4213 132.071 21.7618C132.401 21.1022 132.565 20.3646 132.565 19.5489C132.565 18.7158 132.401 17.9695 132.071 17.3099C131.758 16.6504 131.316 16.1297 130.743 15.7479C130.17 15.3661 129.502 15.1751 128.738 15.1751C127.992 15.1751 127.333 15.3661 126.76 15.7479C126.187 16.1297 125.736 16.6504 125.406 17.3099C125.094 17.9695 124.937 18.7158 124.937 19.5489C124.937 20.3646 125.094 21.1022 125.406 21.7618C125.736 22.4213 126.187 22.942 126.76 23.3238C127.333 23.7057 127.992 23.8966 128.738 23.8966ZM150.319 12.5717C150.77 12.5717 151.143 12.7279 151.438 13.0403C151.733 13.3354 151.881 13.7085 151.881 14.1598V25.2243C151.881 26.8211 151.577 28.0881 150.97 29.0253C150.38 29.9799 149.581 30.6655 148.575 31.082C147.568 31.4986 146.44 31.7068 145.19 31.7068C144.635 31.7068 144.045 31.6634 143.42 31.5767C142.795 31.4899 142.283 31.3597 141.884 31.1862C141.363 30.9605 140.999 30.6741 140.79 30.327C140.6 29.9973 140.565 29.6415 140.686 29.2596C140.843 28.7563 141.094 28.4092 141.441 28.2183C141.788 28.0447 142.153 28.0273 142.535 28.1662C142.812 28.253 143.177 28.3831 143.628 28.5567C144.079 28.7476 144.6 28.8431 145.19 28.8431C145.989 28.8431 146.648 28.7303 147.169 28.5046C147.707 28.2964 148.106 27.9319 148.366 27.4112C148.644 26.9079 148.783 26.2136 148.783 25.3285V23.5842L149.33 24.209C149.035 24.7817 148.661 25.259 148.21 25.6409C147.776 26.0054 147.256 26.283 146.648 26.474C146.041 26.6649 145.346 26.7603 144.565 26.7603C143.646 26.7603 142.838 26.5521 142.144 26.1355C141.467 25.7016 140.938 25.1115 140.556 24.3652C140.174 23.6015 139.983 22.7337 139.983 21.7618V14.1598C139.983 13.7085 140.131 13.3354 140.426 13.0403C140.721 12.7279 141.094 12.5717 141.545 12.5717C141.997 12.5717 142.37 12.7279 142.665 13.0403C142.96 13.3354 143.107 13.7085 143.107 14.1598V20.8245C143.107 21.9527 143.35 22.7511 143.836 23.2197C144.34 23.671 145.034 23.8966 145.919 23.8966C146.527 23.8966 147.039 23.7838 147.455 23.5581C147.872 23.3152 148.193 22.968 148.418 22.5168C148.644 22.0482 148.757 21.4841 148.757 20.8245V14.1598C148.757 13.7085 148.904 13.3354 149.199 13.0403C149.495 12.7279 149.868 12.5717 150.319 12.5717Z" fill="#353C46"/>
<path fill-rule="evenodd" clip-rule="evenodd" d="M0.478892 4.47513C0.724665 4.15193 2.08587 4.18131 7.81424 4.56327C10.1705 4.70688 12.2868 4.82855 13.5942 4.88139C13.9798 4.89697 14.3942 4.90488 14.8117 4.91285C15.3293 4.92274 15.8516 4.93271 16.3295 4.95751L36.0393 5.98027C37.6085 6.06169 38.8008 7.42261 38.6752 8.98891L37.2542 26.7051C37.1435 28.086 36.036 29.1764 34.6535 29.2656L14.9605 30.5369L7.98439 31.0658C4.16547 31.3596 0.875908 31.5359 0.705761 31.4184C0.327648 31.2127 0.270939 29.9493 0.611236 29.5086C0.85701 29.2147 3.73064 28.539 10.3854 27.2462C12.5217 26.8348 14.3745 26.3353 14.5068 26.159C14.7817 25.8323 14.8215 24.9251 14.6261 24.4489C14.567 24.3048 14.4472 24.1964 14.2979 24.1522C13.7097 23.9781 11.9823 23.7497 10.0451 23.6028C7.71971 23.3971 5.65901 23.1327 5.45105 22.9564C4.95951 22.545 4.99732 21.2816 5.52667 21.0759C5.77245 20.9878 7.70081 20.6646 9.81822 20.3708C13.5993 19.8419 13.6939 19.8125 14.1287 19.0486C14.6391 18.1084 14.6769 17.4913 14.2799 16.6099C13.9585 15.9047 13.07 15.5815 10.272 15.1114C8.40031 14.8176 7.94658 14.4944 7.94658 13.4366C7.94658 12.2026 8.3625 12.0263 11.7466 11.7912C13.7506 11.6443 15.074 11.4387 15.2441 11.2036C15.5655 10.7923 15.5844 9.94017 15.263 9.52882C15.1496 9.38192 13.0322 8.82366 10.5934 8.32416C0.384372 6.20867 0.195312 6.1499 0.195312 5.20968C0.195312 5.00401 0.327651 4.68081 0.478892 4.47513ZM22.8759 26.0507C23.1883 26.3458 23.5875 26.4933 24.0735 26.4933C24.5074 26.4933 24.8806 26.3458 25.193 26.0507C25.5227 25.7383 25.6876 25.3565 25.6876 24.9052V18.8392H31.311C31.7623 18.8392 32.1354 18.6917 32.4305 18.3967C32.7429 18.1016 32.8991 17.7632 32.8991 17.3813C32.8991 16.9301 32.7429 16.5656 32.4305 16.2879C32.1354 15.9928 31.7623 15.8453 31.311 15.8453H25.6876V11.2633H32.4825C32.9338 11.2633 33.307 11.1158 33.602 10.8207C33.9144 10.5257 34.0706 10.1872 34.0706 9.80538C34.0706 9.35412 33.9144 8.98964 33.602 8.71194C33.307 8.41689 32.9338 8.26936 32.4825 8.26936H24.0214C23.5702 8.26936 23.1883 8.42557 22.8759 8.73798C22.5809 9.03303 22.4333 9.40619 22.4333 9.85745V24.9052C22.4333 25.3565 22.5809 25.7383 22.8759 26.0507Z" fill="#295BB7"/>
</svg>
