<?xml version="1.0" encoding="utf-8"?>
<!-- Generator: Adobe Illustrator 18.1.1, SVG Export Plug-In . SVG Version: 6.00 Build 0)  -->
<svg version="1.1" id="Layer_1" xmlns="http://www.w3.org/2000/svg" xmlns:xlink="http://www.w3.org/1999/xlink" x="0px" y="0px"
	 viewBox="0 0 462.3 144.3" enable-background="new 0 0 462.3 144.3" xml:space="preserve">
<g>
	<g>
		<path fill-rule="evenodd" clip-rule="evenodd" fill="#9C9A9A" d="M218.1,107.8c-1.5,0.5-2.7,1-3.7,1.4c-1,0.4-2,0.7-3,1
			c-0.9,0.3-2.3,0.7-4.1,1.1c-3.1,0.7-6.1,1.2-9.2,1.6c-3,0.4-6.2,0.6-9.6,0.6c-6.8,0-13.1-1.2-18.9-3.7
			c-5.8-2.5-10.4-6.3-13.9-11.6c-3.5-5.2-5.2-11.7-5.2-19.3c0-4.9,0.9-9.7,2.7-14.4c1.8-4.7,4.6-8.5,8.2-11.4c3-2.4,6.1-4.1,9.2-5.4
			c3.1-1.3,6.2-2.1,9.2-2.5c3-0.4,6.2-0.6,9.8-0.6c5.9,0,10.8,0.5,14.6,1.4c3.8,0.9,8.1,2,12.6,3.5v15.9c-3-1.8-6.2-3.3-9.6-4.5
			c-3.4-1.2-7.6-1.8-12.7-1.8c-5.8,0-10.5,1.1-14,3.3c-3.5,2.2-5.9,4.8-7.3,7.9c-1.4,3.1-2,6-2,8.9c0,3.4,0.8,6.5,2.4,9.4
			c1.6,2.8,4,5.1,7.2,6.9c3.2,1.7,7.1,2.6,11.6,2.6c2.6,0,5.3-0.3,8.2-1v-7.9h-9.1V75.6h26.8V107.8z"/>
		<path fill-rule="evenodd" clip-rule="evenodd" fill="#9C9A9A" d="M269.9,65.9l-6.4,17.5c-2.6-2.5-5.3-3.8-8-3.8
			c-2.5,0-4.6,0.8-6.4,2.5c-1.8,1.6-3.5,4.7-5.1,9.2v21.2h-17.4V63.3h17.4v11.9c1.1-2.9,3-5.8,5.8-8.6c2.8-2.8,6-4.2,9.8-4.2
			c2,0,3.7,0.3,5.1,0.9C266.1,63.9,267.8,64.7,269.9,65.9z"/>
		<path fill-rule="evenodd" clip-rule="evenodd" fill="#9C9A9A" d="M291.7,51.9c0,2-0.7,3.8-2.2,5.2c-1.5,1.4-3.2,2.1-5.2,2.1
			c-1.4,0-2.6-0.3-3.7-1c-1.1-0.6-2-1.5-2.6-2.6c-0.6-1.1-1-2.4-1-3.7c0-2,0.7-3.7,2.1-5.2c1.4-1.5,3.1-2.2,5.2-2.2
			c2,0,3.7,0.7,5.2,2.2C290.9,48.2,291.7,49.9,291.7,51.9z M293.1,112.6h-17.5V63.3h17.5V112.6z"/>
		<polygon fill-rule="evenodd" clip-rule="evenodd" fill="#9C9A9A" points="356.5,63.3 334.1,112.6 321.2,112.6 299.2,63.3 
			318,63.3 328.2,89.1 339.5,63.3 		"/>
		<path fill-rule="evenodd" clip-rule="evenodd" fill="#9C9A9A" d="M410.9,92.1h-34.7c0.7,3,2.3,5.5,5,7.4c2.6,1.9,5.6,2.9,9,2.9
			c5.9,0,12.4-1.6,19.5-4.9v10.8c-2.6,1.3-5.7,2.5-9.3,3.6c-3.6,1.1-8.2,1.6-13.8,1.6c-6.1,0-11.2-1.1-15.5-3.4
			c-4.3-2.3-7.5-5.3-9.6-9.2c-2.1-3.9-3.1-8.3-3.1-13.2c0-4.8,1-9.2,3.1-13c2.1-3.8,5.3-6.8,9.6-9c4.3-2.2,9.4-3.3,15.5-3.3
			c4,0,7.9,0.9,11.6,2.6c3.7,1.7,6.8,4.5,9.2,8.5c2.4,3.9,3.6,9,3.6,15.2V92.1z M394.6,83.5c0-3.2-0.8-5.7-2.4-7.6
			c-1.5-1.9-3.8-2.9-6.7-2.9c-2.9,0-5.3,1-7.1,2.9c-1.8,1.9-2.7,4.4-2.7,7.5H394.6z"/>
		<path fill-rule="evenodd" clip-rule="evenodd" fill="#9C9A9A" d="M462.3,65.9l-6.4,17.5c-2.6-2.5-5.3-3.8-8-3.8
			c-2.5,0-4.6,0.8-6.4,2.5c-1.8,1.6-3.5,4.7-5.1,9.2v21.2h-17.4V63.3h17.4v11.9c1.1-2.9,3-5.8,5.8-8.6c2.8-2.8,6-4.2,9.8-4.2
			c2,0,3.7,0.3,5.1,0.9C458.5,63.9,460.2,64.7,462.3,65.9z"/>
	</g>
	<g>
		<path fill="#9C9A9A" d="M113.2,136.3c-13.1-7.3-23.3-22.8-27.7-42.2c4.6,1,9.1,2.6,13.1,4.9c4.9,11.5,18,16.7,18,16.7
			c-3.3,3.1-5.4,7.6-5.4,12.5C111.2,131.2,111.9,133.9,113.2,136.3z"/>
		<path fill="#9C9A9A" d="M62.9,82.5c3-0.3,6-0.4,9.1-0.4c29.4,0,54.5,12.8,64,30.8c-2.3-1.2-4.9-1.8-7.7-1.8
			c-5.1,0-9.8,2.3-12.9,5.9c-3.5-14.3-21.6-25.5-43.3-25.5c-3.7,0-7.2,0.3-10.6,0.9C62.1,89.1,62.6,85.8,62.9,82.5z"/>
		<circle fill="#9C9A9A" cx="129.4" cy="129.8" r="14.4"/>
		<path fill="#9C9A9A" d="M82.5,61.2c-3,0.3-6.1,0.4-9.2,0.4c-29.4,0-54.5-12.8-64-30.8c2.3,1.2,4.9,1.8,7.7,1.8
			c5.1,0,9.8-2.3,12.9-5.9c3.5,14.3,21.6,25.5,43.3,25.5c3.6,0,7.2-0.3,10.6-0.9C83.3,54.6,82.8,57.9,82.5,61.2z"/>
		<path fill="#9C9A9A" d="M48,45c-3.8-7.6-9.3-13.4-15.6-16.3c-0.4-0.9-0.7-1.9-1-2.9c2.3-2.9,3.7-6.6,3.7-10.7c0-2.9-0.7-5.7-2-8.1
			c13.1,7.3,23.4,23,27.8,42.5C56.3,48.6,52,47.1,48,45z"/>
		<circle fill="#9C9A9A" cx="16.4" cy="14.4" r="14.4"/>
		<path fill="#C8A42E" d="M7.9,112.5c7.3-13.1,22.8-23.3,42.2-27.7c-1,4.6-2.6,9.1-4.9,13.1c-11.5,4.9-16.7,18-16.7,18
			c-3.1-3.3-7.6-5.4-12.5-5.4C13.1,110.5,10.3,111.2,7.9,112.5z"/>
		<path fill="#C8A42E" d="M83.5,81.9c-0.3-3-0.4-6.1-0.4-9.2c0-29.4,12.8-54.5,30.8-64c-1.2,2.3-1.8,4.9-1.8,7.7
			c0,5.1,2.3,9.8,5.9,12.9C103.6,32.9,92.5,51,92.5,72.7c0,3.6,0.3,7.2,0.9,10.6C90.1,82.7,86.8,82.2,83.5,81.9z"/>
		<path fill="#C8A42E" d="M100.1,47.3c7.6-3.8,13.4-9.3,16.3-15.6c0.9-0.4,1.9-0.7,2.9-1c2.9,2.3,6.6,3.7,10.7,3.7
			c2.9,0,5.7-0.7,8.1-2c-7.3,13.1-23,23.4-42.5,27.8C96.5,55.7,98,51.3,100.1,47.3z"/>
		<path fill="#C8A42E" d="M61.8,62.2c0.3,3,0.4,6,0.4,9.1c0,29.4-12.8,54.5-30.8,64c1.2-2.3,1.8-4.9,1.8-7.7c0-5.1-2.3-9.8-5.9-12.9
			c14.3-3.5,25.5-21.6,25.5-43.3c0-3.7-0.3-7.2-0.9-10.6C55.2,61.4,58.4,61.9,61.8,62.2z"/>
		<circle fill="#C8A42E" cx="130.3" cy="15.7" r="14.4"/>
		<circle fill="#C8A42E" cx="14.4" cy="128.7" r="14.4"/>
		<path fill-rule="evenodd" clip-rule="evenodd" fill="none" d="M56.6,44.1"/>
	</g>
</g>
</svg>
