<svg width="126" height="32" viewBox="0 0 126 32" fill="none" xmlns="http://www.w3.org/2000/svg">
<path d="M4.1643 5.86946C1.73513 8.34772 0.00012207 12.1303 0.00012207 16.8695C0.00012207 22.652 2.55931 26.1738 4.25106 27.9129C7.63454 31.3911 11.3651 31.9563 14.8353 31.9563C18.2622 31.9563 21.9492 31.3476 25.1593 27.9999C28.3693 24.6521 29.6272 19.3042 29.6272 15.7825V15.478H15.2691V20.8695H22.2529C21.689 22.9998 20.3877 24.1303 20.1708 24.3042C19.5202 24.8693 18.0018 25.8693 15.1389 25.8693C12.9267 25.8693 10.9747 25.3477 9.28291 23.6085C8.06843 22.3911 6.85374 20.2606 6.85374 16.9563C6.85374 14.2608 7.7213 11.7825 9.32629 10.0868C10.7144 8.60847 12.6664 7.73902 15.3125 7.73902C16.9608 7.73902 18.4357 8.1738 19.737 9.13033C20.8647 9.95641 21.7325 11.1303 22.2962 12.2608L28.3259 8.99989C27.2848 7.1738 25.593 5.13033 23.6409 3.82598C20.9516 2.04326 17.9151 1.65206 15.5292 1.65206C12.1026 1.65206 7.7213 2.17369 4.1643 5.86946Z" fill="url(#paint0_linear_1250_3026)"/>
<path d="M32.6203 14.0433C30.6682 16.0434 29.6707 18.9129 29.6707 21.6954C29.6707 24.9128 30.8851 27.478 32.5768 29.1737C34.8325 31.4346 37.3918 31.9563 40.2982 31.9563C42.4671 31.9563 44.5492 31.652 46.4145 30.5216C47.5423 29.8259 49.2774 28.3911 50.145 25.652L44.2456 25.0433C43.7252 26.1302 42.9876 26.6085 42.9009 26.6521C42.2501 27.0433 41.2959 27.2172 40.3849 27.2172C39.4306 27.2172 38.1293 27.0433 37.175 25.9998C36.3942 25.1302 36.0037 23.7389 36.0037 22.6955H50.4485V22.0433C50.4485 19.6521 50.0149 16.6086 47.7158 14.1737C45.33 11.6521 42.2068 11.2608 40.0379 11.2608C37.869 11.2608 34.9627 11.6955 32.6203 14.0433ZM37.305 16.8695C37.9123 16.2608 38.8666 15.6085 40.4718 15.6085C41.7297 15.6085 42.7274 16.0434 43.4214 16.6954C44.3323 17.565 44.636 18.7824 44.6794 18.9564H36.2206C36.3941 18.0868 36.828 17.3912 37.305 16.8695Z" fill="url(#paint1_linear_1250_3026)"/>
<path d="M57.3456 14.2174V11.913H51.0991V31.3042H57.3456V21.3478C57.3456 20.0868 57.5191 18.6955 58.5602 17.6521C59.0373 17.1303 59.8616 16.6087 61.1629 16.6087C62.2907 16.6087 63.0715 16.9998 63.5487 17.4782C64.5465 18.4781 64.5897 20.0868 64.5897 21.3478V31.3042H70.8363V19.0434C70.8363 17.4782 70.7061 15.1739 68.8842 13.3478C67.2358 11.6956 65.0234 11.3913 63.3317 11.3913C61.5098 11.3913 59.2542 11.7826 57.3456 14.2174Z" fill="url(#paint2_linear_1250_3026)"/>
<path d="M72.3538 3.65203C72.3538 5.6955 73.9589 7.30431 75.9977 7.30431C78.0365 7.30431 79.6415 5.6955 79.6415 3.65203C79.6415 1.60866 78.0365 -3.8147e-05 75.9977 -3.8147e-05C73.9589 -3.8147e-05 72.3538 1.60866 72.3538 3.65203ZM72.8745 31.3042H79.1208V11.913H72.8745V31.3042Z" fill="url(#paint3_linear_1250_3026)"/>
<path d="M94.7798 11.9129V22.6085C94.7798 23.565 94.6497 24.8693 93.7387 25.7389C93.1748 26.2608 92.2639 26.6521 91.0926 26.6521C89.7046 26.6521 88.9238 26.1302 88.49 25.7389C87.4924 24.8259 87.4055 23.478 87.4055 22.6085V11.9129H81.1591V23.6085C81.1591 25.7389 81.5061 27.6955 83.2846 29.4347C85.4969 31.6086 88.7069 31.9563 91.0926 31.9563C93.3916 31.9563 96.645 31.6086 98.8573 29.4347C100.809 27.5216 101.026 25.4346 101.026 23.2172V11.9129H94.7798Z" fill="url(#paint4_linear_1250_3026)"/>
<path d="M104.67 13.2173C103.542 14.2608 102.804 15.826 102.804 17.6955C102.804 19.1738 103.282 20.2606 104.192 21.2173C105.017 22.0433 106.188 22.652 107.316 22.9998L108.877 23.478C109.788 23.7389 110.352 23.9128 110.786 24.1738C111.35 24.5216 111.48 24.9563 111.48 25.3041C111.48 25.7824 111.22 26.2608 110.829 26.565C110.265 26.9998 109.268 26.9998 108.877 26.9998C108.053 26.9998 107.142 26.8259 106.275 26.3911C105.624 26.0868 104.756 25.4781 104.149 24.9563L101.503 29.1737C104.019 31.3911 106.838 31.9563 109.441 31.9563C111.48 31.9563 113.822 31.652 115.731 29.7389C116.599 28.8693 117.726 27.2172 117.726 24.6521C117.726 23.1738 117.336 21.9998 116.208 20.9563C115.21 20.0433 114.083 19.6085 112.998 19.2606L111.35 18.7389C110.569 18.478 109.919 18.3476 109.485 18.0868C109.181 17.9129 108.877 17.6521 108.877 17.2173C108.877 16.9128 109.051 16.5651 109.268 16.3477C109.658 15.9563 110.395 15.7825 111.046 15.7825C112.261 15.7825 113.519 16.3042 114.473 16.8695L116.946 12.9129C115.384 11.9998 113.389 11.2608 110.526 11.2608C108.747 11.2608 106.405 11.6086 104.67 13.2173Z" fill="url(#paint5_linear_1250_3026)"/>
<path d="M117.856 28.0434C117.856 30.2608 119.591 32 121.804 32C124.016 32 125.751 30.2608 125.751 28.0434C125.751 25.8261 124.016 24.0868 121.804 24.0868C119.591 24.0868 117.856 25.8261 117.856 28.0434Z" fill="url(#paint6_linear_1250_3026)"/>
<defs>
<linearGradient id="paint0_linear_1250_3026" x1="2.81958e-05" y1="15.9998" x2="125.751" y2="15.9998" gradientUnits="userSpaceOnUse">
<stop stop-color="#0077FF"/>
<stop offset="1" stop-color="#00DDFF"/>
</linearGradient>
<linearGradient id="paint1_linear_1250_3026" x1="4.28515e-05" y1="15.9998" x2="125.751" y2="15.9998" gradientUnits="userSpaceOnUse">
<stop stop-color="#0077FF"/>
<stop offset="1" stop-color="#00DDFF"/>
</linearGradient>
<linearGradient id="paint2_linear_1250_3026" x1="-0.000132183" y1="15.9999" x2="125.751" y2="15.9999" gradientUnits="userSpaceOnUse">
<stop stop-color="#0077FF"/>
<stop offset="1" stop-color="#00DDFF"/>
</linearGradient>
<linearGradient id="paint3_linear_1250_3026" x1="-0.000206724" y1="15.9999" x2="125.751" y2="15.9999" gradientUnits="userSpaceOnUse">
<stop stop-color="#0077FF"/>
<stop offset="1" stop-color="#00DDFF"/>
</linearGradient>
<linearGradient id="paint4_linear_1250_3026" x1="0.000221869" y1="15.9998" x2="125.751" y2="15.9998" gradientUnits="userSpaceOnUse">
<stop stop-color="#0077FF"/>
<stop offset="1" stop-color="#00DDFF"/>
</linearGradient>
<linearGradient id="paint5_linear_1250_3026" x1="0.000111853" y1="15.9998" x2="125.751" y2="15.9998" gradientUnits="userSpaceOnUse">
<stop stop-color="#0077FF"/>
<stop offset="1" stop-color="#00DDFF"/>
</linearGradient>
<linearGradient id="paint6_linear_1250_3026" x1="-0.000251461" y1="16" x2="125.751" y2="16" gradientUnits="userSpaceOnUse">
<stop stop-color="#0077FF"/>
<stop offset="1" stop-color="#00DDFF"/>
</linearGradient>
</defs>
</svg>
