<svg width="409" height="110" viewBox="0 0 409 110" fill="none" xmlns="http://www.w3.org/2000/svg">
<path d="M24.2521 94.4242C26.4086 101.51 32.8781 106.439 40.4259 106.439C48.1277 106.439 54.5973 101.51 56.7538 94.5782L78.3189 34.504C78.3189 34.504 88.4853 9.39601 61.991 0.153809L40.1178 60.6902L18.2446 0.153809C-8.24965 9.396 1.91676 34.504 1.91676 34.504L24.2521 94.4242Z" fill="#4831d4"/>
<path d="M112.977 106.439V56.0693C112.977 56.0693 114.209 29.1129 86.0208 29.1129V79.4829C86.0208 79.4829 84.9425 106.439 112.977 106.439ZM100.5 25.108C107.432 25.108 112.977 19.4086 112.977 12.477C112.977 5.54531 107.432 0 100.5 0C93.5685 0 87.8692 5.54532 87.8692 12.477C87.8692 19.4086 93.5685 25.108 100.5 25.108Z" fill="#4831d4"/>
<path d="M157.34 55.7611C167.198 55.7611 172.127 70.2406 195.079 58.8419C190.92 41.7438 175.67 29.1128 157.34 29.1128C136.083 29.1128 118.677 46.3649 118.677 67.776C118.677 89.033 136.083 106.439 157.34 106.439C176.748 106.439 192.922 92.1138 195.695 73.4753L167.968 73.1673C165.966 77.0182 161.961 79.6368 157.34 79.6368C150.87 79.6368 145.479 74.2455 145.479 67.776C145.479 61.1524 150.87 55.7611 157.34 55.7611Z" fill="#4831d4"/>
<path fill-rule="evenodd" clip-rule="evenodd" d="M201.086 2.05371C201.002 2.05371 200.918 2.05781 200.834 2.06602C200.751 2.07432 200.668 2.08665 200.585 2.103C200.502 2.11943 200.421 2.13984 200.34 2.16423C200.26 2.18862 200.181 2.2169 200.104 2.24908C200.026 2.28126 199.95 2.31719 199.876 2.3569C199.802 2.39652 199.73 2.4397 199.66 2.48643C199.59 2.53307 199.522 2.58309 199.457 2.63649C199.392 2.6898 199.33 2.74619 199.271 2.80566C199.211 2.86514 199.155 2.92736 199.102 2.99231C199.049 3.05735 198.998 3.12481 198.951 3.19473C198.904 3.26465 198.861 3.33667 198.822 3.41078C198.782 3.48497 198.746 3.56088 198.714 3.6385C198.682 3.7162 198.654 3.79528 198.629 3.87572C198.605 3.95625 198.585 4.03772 198.568 4.12012C198.551 4.20262 198.539 4.28571 198.532 4.3694C198.523 4.45301 198.519 4.53687 198.519 4.62099V79.4828V79.4893C198.5 84.6675 199.659 89.645 201.996 94.4218C206.752 104.145 215.126 109.006 227.118 109.006C239.198 109.006 247.681 104.035 252.566 94.0933C254.091 90.9897 255.12 87.6493 255.651 84.072C255.835 82.8366 255.938 81.7111 255.959 80.6956C255.968 80.2525 255.96 79.877 255.935 79.5692C255.785 77.8001 254.908 76.9155 253.304 76.9155H230.61V58.2766C235.743 57.6806 240.301 56.044 244.282 53.3666C251.906 48.2398 255.718 40.1552 255.718 29.1128C255.718 29.0287 255.713 28.9448 255.705 28.8612C255.697 28.7775 255.685 28.6944 255.669 28.6119C255.652 28.5295 255.631 28.4481 255.607 28.3675C255.582 28.2871 255.554 28.208 255.523 28.1303C255.49 28.0527 255.454 27.9768 255.415 27.9026C255.375 27.8285 255.332 27.7565 255.285 27.6866C255.238 27.6166 255.188 27.5492 255.135 27.4841C255.082 27.4192 255.025 27.357 254.965 27.2975C254.906 27.238 254.844 27.1816 254.779 27.1283C254.714 27.0749 254.647 27.0249 254.577 26.9782C254.506 26.9315 254.434 26.8883 254.361 26.8487C254.286 26.809 254.21 26.7731 254.132 26.7409C254.055 26.7087 253.977 26.6804 253.896 26.6561C253.816 26.6317 253.734 26.6112 253.651 26.5948C253.569 26.5785 253.486 26.5661 253.402 26.5578C253.318 26.5496 253.234 26.5455 253.15 26.5455H230.208C229.514 21.3643 227.761 16.8118 224.95 12.888C219.776 5.66516 211.822 2.05371 201.086 2.05371ZM203.653 7.27158V79.4828V79.508C203.637 83.8872 204.622 88.1063 206.608 92.1654C210.426 99.9697 217.262 103.872 227.118 103.872C237.066 103.872 244.012 99.8575 247.958 91.8287C249.248 89.204 250.119 86.3669 250.573 83.3174C250.639 82.874 250.692 82.4516 250.732 82.05H228.042C227.959 82.05 227.875 82.0459 227.791 82.0377C227.707 82.0294 227.624 82.0171 227.542 82.0007C227.459 81.9843 227.377 81.9639 227.297 81.9395C227.216 81.9151 227.138 81.8868 227.06 81.8547C226.983 81.8225 226.906 81.7866 226.832 81.7468C226.758 81.7072 226.687 81.664 226.616 81.6173C226.546 81.5707 226.479 81.5206 226.414 81.4672C226.349 81.4139 226.286 81.3576 226.227 81.2981C226.167 81.2386 226.111 81.1764 226.058 81.1114C226.005 81.0464 225.955 80.9789 225.908 80.909C225.861 80.8391 225.817 80.7671 225.778 80.6929C225.739 80.6188 225.703 80.5428 225.67 80.4652C225.639 80.3875 225.61 80.3085 225.586 80.228C225.562 80.1475 225.541 80.066 225.524 79.9836C225.508 79.9011 225.496 79.818 225.488 79.7343C225.479 79.6507 225.475 79.5669 225.475 79.4827V55.9151C225.475 55.8338 225.479 55.7527 225.487 55.6716C225.494 55.5907 225.506 55.5103 225.521 55.4304C225.537 55.3506 225.556 55.2716 225.579 55.1935C225.601 55.1154 225.628 55.0387 225.659 54.9632C225.689 54.8876 225.722 54.8137 225.759 54.7414C225.797 54.669 225.837 54.5986 225.881 54.5301C225.924 54.4616 225.972 54.3954 226.022 54.3314C226.073 54.2674 226.126 54.2059 226.181 54.1469C226.237 54.088 226.295 54.0318 226.357 53.9784C226.419 53.925 226.482 53.8746 226.548 53.8273C226.614 53.78 226.683 53.7359 226.754 53.6951C226.824 53.6542 226.896 53.6168 226.969 53.5828C227.044 53.5488 227.119 53.5184 227.195 53.4915C227.272 53.4647 227.35 53.4416 227.429 53.4222C227.508 53.4028 227.588 53.3871 227.669 53.3752C227.749 53.3634 227.83 53.3554 227.912 53.3512C233.102 53.0851 237.603 51.67 241.417 49.106C246.945 45.3882 249.973 39.5796 250.5 31.6801H227.888C227.808 31.6801 227.728 31.6763 227.648 31.6688C227.568 31.6612 227.488 31.65 227.41 31.635C227.331 31.62 227.253 31.6014 227.175 31.579C227.098 31.5567 227.022 31.5308 226.948 31.5014C226.873 31.4719 226.8 31.439 226.728 31.4027C226.656 31.3664 226.586 31.3268 226.519 31.2839C226.45 31.2411 226.384 31.1951 226.321 31.1461C226.258 31.0969 226.197 31.045 226.138 30.9902C226.079 30.9355 226.022 30.878 225.969 30.818C225.916 30.7579 225.866 30.6955 225.818 30.6307C225.77 30.5658 225.725 30.4989 225.684 30.4299C225.643 30.361 225.606 30.2902 225.571 30.2177C225.536 30.1453 225.505 30.0713 225.478 29.9958C225.45 29.9203 225.426 29.8437 225.406 29.766C225.385 29.6883 225.369 29.6098 225.356 29.5306C225.342 29.4514 225.333 29.3717 225.328 29.2915C224.964 24.0771 223.447 19.6059 220.776 15.8781C217.032 10.6521 211.324 7.78324 203.653 7.27158Z" fill="#4831d4"/>
<path fill-rule="evenodd" clip-rule="evenodd" d="M407.939 44.7765C407.994 44.7203 408.047 44.6617 408.097 44.6006C408.147 44.5395 408.193 44.4762 408.237 44.4108C408.281 44.3454 408.323 44.2781 408.36 44.2089C408.399 44.1397 408.433 44.0689 408.464 43.9966C408.496 43.9242 408.524 43.8505 408.549 43.7756C408.573 43.7006 408.594 43.6247 408.612 43.5477C408.629 43.4709 408.643 43.3933 408.653 43.3151C408.664 43.2369 408.671 43.1584 408.673 43.0796C408.677 43.0007 408.676 42.922 408.672 42.8432C408.669 42.7644 408.661 42.686 408.649 42.608C408.638 42.5299 408.623 42.4525 408.605 42.3757C408.587 42.2991 408.564 42.2234 408.539 42.1488C408.514 42.0741 408.485 42.0007 408.453 41.9286C408.42 41.8567 408.385 41.7863 408.346 41.7175C408.308 41.6488 408.266 41.5819 408.222 41.517C408.176 41.4521 408.128 41.3894 408.078 41.3289C399.835 31.4733 389.32 26.5454 376.534 26.5454C369.436 26.5454 362.59 28.1454 355.996 31.3453C351.344 28.1454 345.405 26.5454 338.179 26.5454C338.095 26.5454 338.011 26.5495 337.927 26.5577C337.843 26.566 337.76 26.5783 337.678 26.5947C337.595 26.6111 337.513 26.6315 337.433 26.6559C337.352 26.6803 337.274 26.7086 337.197 26.7408C337.119 26.773 337.043 26.8089 336.968 26.8486C336.895 26.8882 336.823 26.9314 336.753 26.9781C336.682 27.0248 336.615 27.0748 336.55 27.1282C336.485 27.1815 336.423 27.2379 336.364 27.2974C336.304 27.3569 336.247 27.4191 336.194 27.484C336.141 27.549 336.091 27.6165 336.044 27.6864C335.997 27.7564 335.954 27.8284 335.914 27.9025C335.875 27.9767 335.839 28.0526 335.806 28.1302C335.775 28.2079 335.747 28.287 335.722 28.3674C335.698 28.4479 335.677 28.5294 335.66 28.6118C335.644 28.6943 335.632 28.7774 335.624 28.8611C335.616 28.9447 335.611 29.0286 335.611 29.1127V46.0271C334.706 46.888 333.627 47.9358 332.375 49.1704C329.271 43.0074 324.806 37.9092 318.979 33.8757C311.921 28.9888 304.098 26.5454 295.51 26.5454C284.096 26.5454 274.371 30.5635 266.335 38.5998C258.298 46.636 254.28 56.3613 254.28 67.7759C254.28 79.2183 258.301 88.9269 266.342 96.9017C274.313 104.807 284.023 108.841 295.473 109.006C303.985 109.006 312.354 106.256 320.582 100.756C324.941 97.8418 330.228 93.3179 336.443 87.1841C337.384 91.2766 338.965 94.8907 341.186 98.0266C346.373 105.346 354.356 109.006 365.135 109.006C365.219 109.006 365.303 109.002 365.387 108.994C365.47 108.986 365.553 108.973 365.636 108.957C365.719 108.941 365.8 108.92 365.881 108.896C365.961 108.871 366.04 108.843 366.117 108.811C366.195 108.779 366.271 108.743 366.345 108.703C366.419 108.664 366.491 108.62 366.561 108.574C366.631 108.527 366.699 108.477 366.764 108.424C366.829 108.37 366.891 108.314 366.95 108.254C367.01 108.195 367.066 108.133 367.12 108.068C367.173 108.003 367.223 107.935 367.27 107.865C367.317 107.795 367.36 107.723 367.399 107.649C367.439 107.575 367.475 107.499 367.507 107.422C367.539 107.344 367.567 107.265 367.592 107.184C367.616 107.104 367.636 107.022 367.654 106.94C367.67 106.857 367.682 106.774 367.689 106.691C367.698 106.607 367.702 106.523 367.702 106.439V67.3138C367.702 65.645 368.06 64.155 368.775 62.8438C368.856 62.6958 368.921 62.5414 368.972 62.3805C369.022 62.2196 369.057 62.0553 369.074 61.8877C369.092 61.7201 369.094 61.5523 369.078 61.3844C369.063 61.2166 369.032 61.0518 368.985 60.8901C368.902 60.6113 368.777 60.3538 368.607 60.1177C371.388 59.0275 374.031 58.4823 376.534 58.4823C379.626 58.4823 381.962 59.2917 383.542 60.9103C385.777 63.1982 388.365 63.2106 391.307 60.9474C393.286 59.4249 398.831 54.0346 407.939 44.7765ZM362.625 65.9351C358.698 67.7528 354.433 70.2963 349.831 73.5656C349.763 73.6143 349.692 73.6595 349.62 73.7013C349.547 73.743 349.472 73.781 349.395 73.8154C349.318 73.8498 349.24 73.8803 349.16 73.907C349.081 73.9337 349 73.9565 348.918 73.9753C348.836 73.9941 348.754 74.0088 348.67 74.0194C348.587 74.0301 348.503 74.0366 348.418 74.039C348.334 74.0414 348.25 74.0397 348.167 74.0339C348.083 74.0281 347.999 74.0181 347.916 74.0041C347.833 73.9901 347.752 73.972 347.671 73.9499C347.59 73.9278 347.51 73.9017 347.431 73.8719C347.352 73.8419 347.275 73.8082 347.2 73.7707C347.125 73.7332 347.052 73.6921 346.981 73.6474C346.909 73.6027 346.841 73.5546 346.774 73.5032C346.707 73.4518 346.643 73.3972 346.583 73.3394C346.522 73.2817 346.464 73.2212 346.408 73.1577C346.353 73.0943 346.301 73.0283 346.253 72.9597C346.208 72.8981 346.167 72.8347 346.129 72.7695C346.091 72.7043 346.056 72.6375 346.024 72.5692C345.992 72.5008 345.962 72.4312 345.936 72.3602C345.91 72.2894 345.887 72.2175 345.868 72.1445C345.848 72.0716 345.831 71.9979 345.818 71.9236C345.805 71.8491 345.795 71.7743 345.788 71.6991C345.781 71.6237 345.778 71.5483 345.778 71.4727C345.778 71.3972 345.781 71.3217 345.788 71.2464C345.795 71.1712 345.805 71.0964 345.818 71.0219C345.831 70.9476 345.848 70.8739 345.868 70.801C345.887 70.728 345.91 70.6561 345.936 70.5852C345.962 70.5143 345.992 70.4447 346.024 70.3764C346.056 70.308 346.091 70.2412 346.129 70.176C346.167 70.1108 346.208 70.0474 346.253 69.9858C346.296 69.9242 346.343 69.8646 346.391 69.8071C346.44 69.7496 346.491 69.6943 346.545 69.6414C357.602 58.779 367.598 53.3478 376.534 53.3478C381.068 53.3478 384.628 54.6729 387.216 57.3232C387.265 57.3726 387.309 57.4178 387.35 57.4589C387.578 57.3196 387.854 57.1259 388.176 56.8776C389.853 55.5876 394.66 50.9215 402.599 42.8794C395.628 35.4131 386.94 31.6799 376.534 31.6799C369.757 31.6799 363.222 33.328 356.93 36.6241C356.82 36.6817 356.707 36.7309 356.59 36.772C356.473 36.8132 356.353 36.8457 356.232 36.8694C356.11 36.8932 355.987 36.9081 355.863 36.9141C355.739 36.9202 355.616 36.9173 355.492 36.9054C355.369 36.8935 355.247 36.8727 355.126 36.8431C355.006 36.8136 354.888 36.7755 354.773 36.7289C354.659 36.6823 354.548 36.6276 354.441 36.5648C354.334 36.5022 354.232 36.4321 354.136 36.3546C350.748 33.6449 346.285 32.1132 340.746 31.7595V47.135C340.746 47.311 340.728 47.4852 340.692 47.6575C340.656 47.8299 340.603 47.9968 340.533 48.1582C340.463 48.3196 340.377 48.4722 340.276 48.616C340.174 48.7598 340.059 48.8917 339.931 49.0118C338.412 50.4294 336.225 52.5654 333.37 55.4198C333.311 55.4793 333.249 55.5357 333.184 55.589C333.119 55.6424 333.051 55.6924 332.981 55.7391C332.911 55.7858 332.839 55.829 332.766 55.8686C332.691 55.9083 332.615 55.9442 332.537 55.9764C332.46 56.0086 332.381 56.0369 332.301 56.0613C332.22 56.0857 332.139 56.1061 332.056 56.1225C331.974 56.1388 331.891 56.1512 331.807 56.1595C331.723 56.1677 331.639 56.1718 331.555 56.1718C331.471 56.1718 331.387 56.1677 331.303 56.1595C331.22 56.1512 331.137 56.1388 331.054 56.1225C330.971 56.1061 330.89 56.0857 330.809 56.0613C330.729 56.0369 330.65 56.0086 330.573 55.9764C330.495 55.9442 330.419 55.9083 330.345 55.8686C330.271 55.829 330.199 55.7858 330.129 55.7391C330.059 55.6924 329.991 55.6424 329.926 55.589C329.861 55.5357 329.799 55.4793 329.74 55.4198C329.49 55.1703 329.3 54.8815 329.17 54.5535C326.469 47.7648 322.098 42.2795 316.058 38.0974C309.877 33.8191 303.028 31.68 295.51 31.68C285.514 31.68 276.998 35.1968 269.965 42.2304C262.931 49.2641 259.415 57.7792 259.415 67.7759C259.415 77.792 262.929 86.2854 269.957 93.256C276.948 100.188 285.478 103.727 295.548 103.872C302.971 103.872 310.364 101.41 317.728 96.4874C322.601 93.2296 328.806 87.7343 336.34 80.0016C336.458 79.8809 336.586 79.7728 336.724 79.6772C336.864 79.5818 337.011 79.5008 337.166 79.4343C337.321 79.3678 337.48 79.317 337.645 79.282C337.81 79.2469 337.977 79.2283 338.145 79.2262C338.314 79.224 338.481 79.2382 338.647 79.2689C338.812 79.2996 338.973 79.3463 339.13 79.4088C339.286 79.4713 339.435 79.5485 339.577 79.6403C339.719 79.7321 339.85 79.8368 339.971 79.9544C340.078 80.0597 340.176 80.1737 340.265 80.2962C340.353 80.4189 340.429 80.5482 340.494 80.6843C340.559 80.8203 340.612 80.9611 340.652 81.1065C340.692 81.2519 340.72 81.3996 340.734 81.5498C342.068 95.55 349.345 102.965 362.568 103.794V67.3138C362.568 66.8463 362.587 66.3868 362.625 65.9351ZM285.16 77.7494C287.866 80.5311 291.173 82.015 295.08 82.201C295.121 82.203 295.161 82.2039 295.202 82.2039C304.445 82.2039 315.492 74.9824 328.343 60.5394C328.841 59.9801 329.13 59.6599 329.211 59.5788C329.265 59.5252 329.316 59.4694 329.365 59.4114C329.413 59.3533 329.459 59.2932 329.503 59.2311C329.546 59.1689 329.587 59.105 329.624 59.0393C329.662 58.9735 329.697 58.9062 329.728 58.8375C329.76 58.7687 329.788 58.6986 329.813 58.6272C329.839 58.556 329.861 58.4836 329.88 58.4103C329.9 58.3371 329.915 58.2631 329.927 58.1884C329.94 58.1137 329.95 58.0385 329.956 57.963C329.962 57.8875 329.964 57.8119 329.963 57.7361C329.962 57.6604 329.958 57.5848 329.951 57.5094C329.943 57.4341 329.932 57.3592 329.918 57.2848C329.904 57.2104 329.886 57.1367 329.866 57.0639C329.845 56.991 329.822 56.9192 329.795 56.8484C329.768 56.7776 329.737 56.7082 329.704 56.64C329.672 56.572 329.636 56.5055 329.596 56.4406C329.557 56.3757 329.515 56.3126 329.47 56.2514C329.421 56.1834 329.368 56.1181 329.312 56.0554C329.257 55.9925 329.198 55.9326 329.135 55.8756C329.074 55.8187 329.01 55.765 328.943 55.7143C328.875 55.6636 328.805 55.6164 328.734 55.5726C328.663 55.5288 328.589 55.4885 328.513 55.4519C328.437 55.4154 328.36 55.3826 328.28 55.3536C328.202 55.3246 328.122 55.2996 328.04 55.2785C327.959 55.2574 327.877 55.2403 327.794 55.2273C327.711 55.2142 327.628 55.2052 327.544 55.2005C327.46 55.1957 327.376 55.195 327.292 55.1984C327.207 55.2018 327.123 55.2094 327.04 55.221C326.957 55.2326 326.875 55.2483 326.793 55.2681C326.711 55.2878 326.631 55.3115 326.551 55.3392C326.472 55.3669 326.394 55.3983 326.318 55.4337C326.242 55.4689 326.167 55.5079 326.094 55.5505C326.022 55.5931 325.952 55.6392 325.884 55.6888C324.783 56.4913 323.239 57.6264 321.253 59.0942C316.604 62.5281 312.825 65.1272 309.915 66.8914C309.725 63.249 308.338 60.1137 305.756 57.4856C302.946 54.6244 299.531 53.1937 295.51 53.1937C291.491 53.1937 288.076 54.6244 285.264 57.4856C282.476 60.3241 281.082 63.7541 281.082 67.7759C281.082 71.631 282.442 74.9555 285.16 77.7494ZM305.62 73.7755C305.479 73.706 305.346 73.6242 305.22 73.5303C305.094 73.4363 304.978 73.3317 304.871 73.2164C304.764 73.1011 304.668 72.977 304.585 72.8442C304.501 72.7114 304.43 72.5721 304.371 72.4262C304.309 72.2697 304.262 72.1086 304.232 71.9428C304.201 71.7771 304.186 71.61 304.188 71.4414C304.19 71.2728 304.209 71.1061 304.243 70.9412C304.278 70.7763 304.329 70.6164 304.396 70.4615C304.668 69.8259 304.804 68.9307 304.804 67.7759C304.804 65.1542 303.9 62.9234 302.093 61.0836C300.289 59.2467 298.095 58.3283 295.51 58.3283C292.926 58.3283 290.732 59.2467 288.928 61.0836C287.121 62.9234 286.217 65.1542 286.217 67.7759C286.217 70.2405 287.091 72.3715 288.839 74.1688C290.59 75.9683 292.732 76.9352 295.264 77.0693C298.38 77.055 301.832 75.9571 305.62 73.7755Z" fill="#4831d4"/>
</svg>
